<svg width="214" height="20" viewBox="0 0 214 20" fill="none" xmlns="http://www.w3.org/2000/svg">
<path d="M20 10V20H0V0H20L16.7012 3.29802H3.29878V16.6974H16.7012V10H20ZM37.9406 17.0152C40.3317 17.0152 42.2391 16.0617 43.5706 14.9332V9.31829H37.8254V11.3634H41.2762V13.8646C40.4469 14.4772 39.2905 14.8779 38.0189 14.8779C35.2638 14.8779 33.4301 12.8512 33.4301 10.1013V10.0645C33.4301 7.50346 35.319 5.34777 37.807 5.34777C39.5208 5.34777 40.5437 5.90051 41.5849 6.78029L43.0868 5.0023C41.7001 3.83694 40.2534 3.18747 37.8991 3.18747C33.8309 3.18747 30.9422 6.35652 30.9422 10.1013V10.1382C30.9422 14.035 33.7203 17.0152 37.9406 17.0152ZM48.8321 16.7895H58.2953V14.6476H51.2048V3.41778H48.8321V16.7895ZM68.6339 17.0152C72.7805 17.0152 75.7061 13.8646 75.7061 10.1013V10.0645C75.7061 6.30124 72.8127 3.18747 68.6708 3.18747C64.5243 3.18747 61.5987 6.33809 61.5987 10.1013V10.1382C61.6033 13.9014 64.4921 17.0152 68.6339 17.0152ZM68.6754 14.8595C65.994 14.8595 64.0866 12.6992 64.0866 10.1059V10.0691C64.0866 7.47121 65.9572 5.35237 68.6339 5.35237C71.3108 5.35237 73.2228 7.51267 73.2228 10.1105V10.1474C73.2228 12.7361 71.3522 14.8595 68.6754 14.8595ZM86.7864 17.0152C89.3112 17.0152 90.8546 16.0986 92.2598 14.6476L90.7348 13.1184C89.5784 14.187 88.5188 14.8549 86.8602 14.8549C84.2755 14.8549 82.4096 12.7176 82.4096 10.1013V10.0645C82.4096 7.44818 84.2801 5.34777 86.8602 5.34777C88.4036 5.34777 89.56 6.01566 90.6381 7.01059L92.1585 5.27407C90.8685 4.05343 89.3619 3.19208 86.8786 3.19208C82.792 3.19208 79.9217 6.30585 79.9217 10.1059V10.1428C79.9217 13.9797 82.8519 17.0152 86.7864 17.0152ZM95.5909 16.7895H98.0189L99.4057 13.5606H105.787L107.155 16.7895H109.661L103.727 3.32105H101.53L95.5909 16.7895ZM100.276 11.4786L102.589 6.13082L104.921 11.4786H100.276ZM113.891 16.7895H123.354V14.6476H116.264V3.41778H113.891V16.7895ZM129.62 16.7895H132.011V11.4602L137.369 3.41778H134.651L130.832 9.34132L127.054 3.41778H124.257L129.62 11.5154V16.7895Z" fill="url(#paint0_linear)"/>
<path d="M153.75 11.7641V11.7273C153.75 8.84844 155.791 6.48547 158.669 6.48547C161.875 6.48547 163.492 9.00044 163.492 11.9023C163.492 12.1142 163.474 12.3215 163.455 12.5518H156.058C156.306 14.1916 157.467 15.1082 158.955 15.1082C160.079 15.1082 160.88 14.6891 161.682 13.906L163.036 15.1082C162.083 16.2506 160.765 16.9968 158.918 16.9968C155.998 16.9875 153.75 14.8687 153.75 11.7641ZM161.203 11.0179C161.051 9.53015 160.171 8.3694 158.646 8.3694C157.237 8.3694 156.242 9.45645 156.035 11.0179H161.203Z" fill="url(#paint1_linear)"/>
<path d="M168.946 3.41327H171.29V10.1245L177.642 3.41327H180.521L174.971 9.15256L180.765 16.762H177.923L173.368 10.7555L171.29 12.8928V16.762H168.946V3.41327Z" fill="url(#paint2_linear)"/>
<path d="M189.554 11.4971L184.252 3.41327H187.016L190.751 9.32299L194.528 3.41327H197.218L191.917 11.4418V16.762H189.554V11.4971Z" fill="url(#paint3_linear)"/>
<path d="M201.548 10.1244V10.0875C201.548 6.29203 204.39 3.18286 208.43 3.18286C210.89 3.18286 212.377 4.03961 213.653 5.26025L212.147 6.99677C211.078 6.00644 209.936 5.33855 208.411 5.33855C205.855 5.33855 204.008 7.43436 204.008 10.0507V10.0875C204.008 12.6992 205.86 14.8365 208.411 14.8365C210.051 14.8365 211.101 14.1686 212.244 13.1L213.75 14.6246C212.359 16.0755 210.834 16.9876 208.333 16.9876C204.446 16.9876 201.548 13.9567 201.548 10.1244Z" fill="url(#paint4_linear)"/>
<path d="M148.125 10.6226H141.875V11.8726H148.125V10.6226Z" fill="url(#paint5_linear)"/>
<defs>
<linearGradient id="paint0_linear" x1="68.6834" y1="1.5953" x2="68.6834" y2="18.9491" gradientUnits="userSpaceOnUse">
<stop stop-color="#BB9043"/>
<stop offset="0.469" stop-color="#E1C98F"/>
<stop offset="1" stop-color="#AE7D20"/>
</linearGradient>
<linearGradient id="paint1_linear" x1="159.132" y1="2.38358" x2="158.411" y2="15.6013" gradientUnits="userSpaceOnUse">
<stop stop-color="#BB9043"/>
<stop offset="0.469" stop-color="#E1C98F"/>
<stop offset="1" stop-color="#AE7D20"/>
</linearGradient>
<linearGradient id="paint2_linear" x1="175.227" y1="3.26154" x2="174.506" y2="16.4793" gradientUnits="userSpaceOnUse">
<stop stop-color="#BB9043"/>
<stop offset="0.469" stop-color="#E1C98F"/>
<stop offset="1" stop-color="#AE7D20"/>
</linearGradient>
<linearGradient id="paint3_linear" x1="190.699" y1="4.10548" x2="189.978" y2="17.3232" gradientUnits="userSpaceOnUse">
<stop stop-color="#BB9043"/>
<stop offset="0.469" stop-color="#E1C98F"/>
<stop offset="1" stop-color="#AE7D20"/>
</linearGradient>
<linearGradient id="paint4_linear" x1="208.041" y1="5.05131" x2="207.32" y2="18.269" gradientUnits="userSpaceOnUse">
<stop stop-color="#BB9043"/>
<stop offset="0.469" stop-color="#E1C98F"/>
<stop offset="1" stop-color="#AE7D20"/>
</linearGradient>
<linearGradient id="paint5_linear" x1="144.998" y1="3.03488" x2="144.998" y2="16.2822" gradientUnits="userSpaceOnUse">
<stop stop-color="#BB9043"/>
<stop offset="0.469" stop-color="#E1C98F"/>
<stop offset="1" stop-color="#AE7D20"/>
</linearGradient>
</defs>
</svg>
